<svg xmlns="http://www.w3.org/2000/svg" width="512" height="512" viewBox="0 0 512 512">
  <!-- Triangle sides -->
  <path fill="none" stroke="#000" stroke-width="13" d="M60 420 L452 420"/>
  <path fill="none" stroke="#000" stroke-width="13" d="M60 420 L256 80"/>
  <path fill="none" stroke="#000" stroke-width="13" d="M256 80 L452 420"/>
  <!-- Incircle -->
  <circle cx="256" cy="320" r="100" fill="none" stroke="red" stroke-width="13"/>
  <!-- Triangle vertices (input) - blue -->
  <circle cx="256" cy="80" r="35" fill="#00f"/>
  <path d="M256 53c14.888 0 27 12.112 27 27s-12.112 27-27 27-27-12.112-27-27 12.112-27 27-27m0-13c-22.091 0-40 17.909-40 40s17.909 40 40 40 40-17.909 40-40-17.909-40-40-40z"/>
  <circle cx="60" cy="420" r="35" fill="#00f"/>
  <path d="M60 393c14.888 0 27 12.112 27 27s-12.112 27-27 27-27-12.112-27-27 12.112-27 27-27m0-13c-22.091 0-40 17.909-40 40s17.909 40 40 40 40-17.909 40-40-17.909-40-40-40z"/>
  <circle cx="452" cy="420" r="35" fill="#00f"/>
  <path d="M452 393c14.888 0 27 12.112 27 27s-12.112 27-27 27-27-12.112-27-27 12.112-27 27-27m0-13c-22.091 0-40 17.909-40 40s17.909 40 40 40 40-17.909 40-40-17.909-40-40-40z"/>
</svg>