<svg xmlns="http://www.w3.org/2000/svg" width="512" height="512" viewBox="0 0 512 512">
  <!-- Triangle sides -->
  <path fill="none" stroke="#000" stroke-width="13" d="M80 400 L432 400"/>
  <path fill="none" stroke="#000" stroke-width="13" d="M80 400 L256 100"/>
  <path fill="none" stroke="#000" stroke-width="13" d="M256 100 L432 400"/>
  <!-- Altitude (perpendicular from top vertex to base) -->
  <path fill="none" stroke="red" stroke-width="13" d="M256 100 L256 400"/>
  <!-- Right angle marker -->
  <path fill="none" stroke="red" stroke-width="8" d="M256 370 L286 370 L286 400"/>
  <!-- Top vertex (input) - blue -->
  <circle cx="256" cy="100" r="35" fill="#00f"/>
  <path d="M256 73c14.888 0 27 12.112 27 27s-12.112 27-27 27-27-12.112-27-27 12.112-27 27-27m0-13c-22.091 0-40 17.909-40 40s17.909 40 40 40 40-17.909 40-40-17.909-40-40-40z"/>
  <!-- Foot of altitude (output) - red -->
  <circle cx="256" cy="400" r="35" fill="red"/>
  <path d="M256 373c14.888 0 27 12.112 27 27s-12.112 27-27 27-27-12.112-27-27 12.112-27 27-27m0-13c-22.091 0-40 17.909-40 40s17.909 40 40 40 40-17.909 40-40-17.909-40-40-40z"/>
</svg>